# xmcd
#
# Track frame offsets: 
#        150
#        10689
#        23866
#        40887
#        60552
#        84402
#        101104
#        117421
#        132522
#        145359
#        165816
#
# Disc length: 2514 seconds
#
# Revision: 0
# Processed by: cddbd v1.5.2PL0 Copyright (c) Steve Scherf et al.
# Submitted via: ExactAudioCopy v1.3
#
DISCID=8a09d00b
DTITLE=Robin Rogers - Treat Me Right
DYEAR=2008
DGENRE=Modern Electric Blues
TTITLE0=Treat Me Right
TTITLE1=Don't Leave Poor Me
TTITLE2=Ain't No Use
TTITLE3=Can You Hear Me Now
TTITLE4=Color-Blind Angel
TTITLE5=Promised Land
TTITLE6=Nobody Stays
TTITLE7=Drunkard's Alley
TTITLE8=Nobody's Gonna Hurt You
TTITLE9=Moan
TTITLE10=Dark Love
EXTD=
EXTT0=
EXTT1=
EXTT2=
EXTT3=
EXTT4=
EXTT5=
EXTT6=
EXTT7=
EXTT8=
EXTT9=
EXTT10=
PLAYORDER=
